<svg width="60.000000" height="60.000000" viewBox="0 0 60 60" fill="none" xmlns="http://www.w3.org/2000/svg" xmlns:xlink="http://www.w3.org/1999/xlink">
	<desc>
			Created with Pixso.
	</desc>
	<defs/>
	<rect width="60.000000" height="59.999931" fill="#FFFFFF" fill-opacity="0"/>
	<path d="M40.22 1.17C40.22 0.52 40.74 0 41.39 0C42.04 0 42.56 0.52 42.56 1.17L42.56 3.13C42.56 3.78 42.04 4.3 41.39 4.3C40.74 4.3 40.22 3.78 40.22 3.13L40.22 1.17ZM47.96 3.27C48.47 2.87 49.21 2.96 49.61 3.47C50.01 3.97 49.92 4.71 49.41 5.11L47.77 6.39C47.57 6.56 47.31 6.65 47.05 6.65C46.87 6.65 46.7 6.61 46.54 6.53C46.38 6.45 46.24 6.34 46.13 6.2C45.73 5.69 45.82 4.95 46.33 4.55L47.96 3.27ZM36.45 4.55L34.82 3.27C34.69 3.17 34.56 3.1 34.41 3.06C34.26 3.02 34.1 3.01 33.95 3.03C33.8 3.04 33.65 3.09 33.52 3.17C33.38 3.24 33.27 3.34 33.17 3.47C32.77 3.97 32.86 4.71 33.37 5.11L35 6.39C35.21 6.56 35.46 6.65 35.73 6.65C35.9 6.65 36.08 6.61 36.24 6.53C36.4 6.45 36.54 6.34 36.65 6.2C37.05 5.69 36.96 4.95 36.45 4.55ZM55 12.71L47.98 12.71L47.98 12.5C47.98 8.87 45.02 5.92 41.39 5.92C37.76 5.92 34.8 8.87 34.8 12.5L34.8 12.71L26.55 12.71C23.84 12.71 21.63 14.92 21.63 17.63L21.63 23.2L14.24 23.2C12.48 23.2 10.91 24.25 10.25 25.88C10.24 25.91 10.23 25.93 10.22 25.96L5.96 38.86C5.92 38.89 5.88 38.91 5.81 38.94C5.57 39.07 5.11 39.25 4.33 39.44C3.09 39.75 1.98 40.46 1.19 41.46C0.4 42.47 -0.03 43.72 -0.03 45L-0.03 51.09C-0.03 53.14 1.63 54.8 3.67 54.8L8.9 54.8C9.45 57.75 12.05 60 15.16 60C18.27 60 20.87 57.75 21.42 54.8L39.84 54.8C40.39 57.75 42.99 60 46.1 60C49.21 60 51.81 57.75 52.36 54.8L55.68 54.8C58.22 54.8 59.92 53.09 59.92 50.55L59.92 20.08C59.92 13.42 56.48 12.71 55 12.71ZM37.14 12.5C37.14 10.16 39.05 8.26 41.39 8.26C43.73 8.26 45.63 10.16 45.63 12.5L45.63 12.71L37.14 12.71L37.14 12.5ZM55.68 52.45L52.36 52.45C52.36 52.43 52.35 52.41 52.35 52.39C52.32 52.25 52.29 52.12 52.25 51.98C52.24 51.92 52.22 51.86 52.2 51.8C52.19 51.77 52.18 51.73 52.17 51.69C52.15 51.63 52.13 51.57 52.11 51.51C52.1 51.48 52.09 51.45 52.07 51.41C52.05 51.34 52.02 51.27 51.99 51.21C51.98 51.18 51.97 51.16 51.97 51.14C51.93 51.05 51.89 50.96 51.84 50.87C51.84 50.86 51.83 50.85 51.83 50.84C51.79 50.76 51.75 50.68 51.71 50.61C51.69 50.58 51.68 50.56 51.66 50.53C51.63 50.47 51.6 50.41 51.56 50.36C51.55 50.32 51.53 50.29 51.51 50.26C51.46 50.18 51.4 50.1 51.34 50.02C51.29 49.93 51.23 49.86 51.17 49.78C51.14 49.73 51.1 49.68 51.06 49.63C51.04 49.61 51.01 49.58 50.99 49.55C50.95 49.5 50.91 49.45 50.86 49.4C50.84 49.38 50.82 49.35 50.8 49.33C50.75 49.27 50.69 49.21 50.63 49.16C50.62 49.15 50.61 49.13 50.6 49.12C50.53 49.05 50.46 48.98 50.39 48.92C50.37 48.9 50.36 48.89 50.34 48.88C50.28 48.83 50.23 48.78 50.17 48.73C50.14 48.71 50.12 48.69 50.09 48.67C50.04 48.63 49.99 48.59 49.94 48.55C49.91 48.53 49.88 48.5 49.85 48.48C49.72 48.39 49.59 48.3 49.46 48.22C49.43 48.2 49.39 48.18 49.36 48.16C49.31 48.12 49.25 48.09 49.2 48.06C49.17 48.05 49.14 48.03 49.1 48.01C49.05 47.98 48.99 47.95 48.93 47.92C48.9 47.91 48.87 47.89 48.84 47.88C48.77 47.84 48.69 47.81 48.61 47.77C48.6 47.77 48.59 47.76 48.58 47.76C48.48 47.72 48.39 47.68 48.3 47.65C48.27 47.64 48.25 47.63 48.22 47.62C48.15 47.6 48.09 47.57 48.02 47.55C47.99 47.54 47.95 47.53 47.91 47.52C47.85 47.5 47.79 47.49 47.73 47.47C47.7 47.46 47.66 47.45 47.62 47.44C47.52 47.42 47.42 47.39 47.32 47.37C47.26 47.36 47.2 47.35 47.14 47.34C47.1 47.34 47.06 47.33 47.02 47.32C46.96 47.31 46.9 47.31 46.84 47.3C46.8 47.3 46.76 47.29 46.72 47.29C46.65 47.28 46.58 47.28 46.51 47.27C46.48 47.27 46.45 47.27 46.41 47.26C46.31 47.26 46.2 47.26 46.1 47.26C46 47.26 45.89 47.26 45.79 47.26C45.76 47.27 45.72 47.27 45.69 47.27C45.62 47.28 45.55 47.28 45.48 47.29C45.45 47.29 45.41 47.3 45.37 47.3C45.3 47.31 45.24 47.31 45.18 47.32C45.14 47.33 45.1 47.34 45.06 47.34C44.96 47.36 44.86 47.38 44.76 47.4C44.7 47.41 44.64 47.43 44.59 47.44C44.55 47.45 44.51 47.46 44.47 47.47C44.41 47.49 44.35 47.5 44.29 47.52C44.25 47.53 44.22 47.54 44.18 47.55C44.12 47.57 44.05 47.6 43.99 47.62C43.96 47.63 43.93 47.64 43.9 47.65C43.81 47.68 43.72 47.72 43.63 47.76C43.61 47.76 43.6 47.77 43.58 47.78C43.51 47.81 43.43 47.84 43.36 47.88C43.33 47.89 43.3 47.91 43.27 47.92C43.21 47.95 43.16 47.98 43.1 48.01C43.07 48.03 43.03 48.05 43 48.07C42.95 48.1 42.9 48.12 42.85 48.15C42.73 48.23 42.61 48.3 42.5 48.38C42.45 48.41 42.4 48.44 42.36 48.48C42.32 48.5 42.29 48.53 42.26 48.55C42.21 48.59 42.17 48.62 42.12 48.66C42.09 48.68 42.06 48.71 42.03 48.73C41.98 48.77 41.93 48.82 41.87 48.87C41.85 48.89 41.83 48.9 41.81 48.92C41.74 48.98 41.67 49.05 41.61 49.12C41.59 49.14 41.57 49.15 41.55 49.17C41.5 49.22 41.45 49.27 41.41 49.33C41.38 49.35 41.36 49.38 41.33 49.41C41.29 49.45 41.25 49.5 41.21 49.55C41.19 49.58 41.16 49.61 41.14 49.64C41.1 49.68 41.07 49.73 41.03 49.77C40.95 49.88 40.87 50 40.79 50.11C40.76 50.16 40.73 50.21 40.7 50.26C40.68 50.29 40.66 50.32 40.64 50.36C40.6 50.41 40.57 50.46 40.54 50.52C40.53 50.55 40.51 50.58 40.49 50.61C40.46 50.68 40.42 50.75 40.39 50.82C40.38 50.83 40.37 50.85 40.36 50.87C40.32 50.96 40.28 51.05 40.24 51.14C40.23 51.17 40.22 51.19 40.21 51.22C40.18 51.28 40.15 51.35 40.13 51.41C40.12 51.45 40.1 51.48 40.09 51.52C40.07 51.58 40.05 51.63 40.03 51.69C40.02 51.73 40.01 51.77 40 51.81C39.97 51.91 39.94 52 39.92 52.1C39.9 52.16 39.89 52.21 39.88 52.27C39.87 52.31 39.86 52.35 39.85 52.4C39.85 52.41 39.84 52.43 39.84 52.45L21.42 52.45C21.42 52.43 21.41 52.41 21.41 52.39C21.4 52.35 21.39 52.31 21.38 52.27C21.35 52.12 21.31 51.96 21.26 51.81C21.25 51.77 21.24 51.73 21.23 51.69C21.21 51.63 21.19 51.58 21.17 51.52C21.15 51.48 21.14 51.45 21.13 51.41C21.11 51.35 21.08 51.28 21.05 51.22C21.04 51.19 21.03 51.16 21.02 51.14C20.98 51.05 20.94 50.96 20.9 50.87C20.89 50.85 20.88 50.84 20.87 50.82C20.84 50.75 20.8 50.68 20.77 50.61C20.75 50.58 20.73 50.55 20.72 50.52C20.68 50.47 20.65 50.41 20.62 50.36C20.6 50.32 20.58 50.29 20.56 50.26C20.53 50.21 20.5 50.16 20.47 50.11C20.39 50 20.31 49.88 20.23 49.77C20.19 49.73 20.16 49.68 20.12 49.64C20.09 49.61 20.07 49.58 20.04 49.55C20.01 49.5 19.97 49.46 19.93 49.41C19.9 49.38 19.88 49.35 19.85 49.33C19.81 49.28 19.76 49.22 19.71 49.17C19.69 49.15 19.67 49.14 19.65 49.12C19.59 49.05 19.52 48.98 19.44 48.92C19.43 48.9 19.4 48.88 19.38 48.87C19.33 48.82 19.28 48.77 19.23 48.73C19.2 48.71 19.17 48.68 19.14 48.66C19.09 48.62 19.05 48.59 19 48.55C18.97 48.53 18.93 48.5 18.9 48.48C18.86 48.44 18.81 48.41 18.76 48.38C18.68 48.32 18.6 48.27 18.52 48.22C18.48 48.2 18.45 48.18 18.41 48.15C18.36 48.12 18.31 48.1 18.26 48.07C18.23 48.05 18.19 48.03 18.16 48.01C18.1 47.98 18.05 47.95 17.99 47.92C17.96 47.91 17.93 47.89 17.9 47.88C17.83 47.84 17.75 47.81 17.68 47.78C17.66 47.77 17.65 47.76 17.63 47.76C17.54 47.72 17.45 47.68 17.36 47.65C17.33 47.64 17.3 47.63 17.27 47.62C17.21 47.6 17.14 47.57 17.08 47.55C17.04 47.54 17 47.53 16.97 47.52C16.91 47.5 16.85 47.49 16.79 47.47C16.75 47.46 16.71 47.45 16.67 47.44C16.52 47.4 16.36 47.37 16.2 47.34C16.16 47.34 16.12 47.33 16.08 47.32C16.02 47.32 15.95 47.31 15.89 47.3C15.85 47.3 15.81 47.29 15.77 47.29C15.71 47.28 15.64 47.28 15.57 47.27C15.53 47.27 15.5 47.27 15.47 47.26C15.36 47.26 15.26 47.26 15.16 47.26C15.05 47.26 14.95 47.26 14.85 47.26C14.81 47.27 14.78 47.27 14.75 47.27C14.68 47.28 14.61 47.28 14.54 47.29C14.5 47.29 14.46 47.3 14.42 47.3C14.36 47.31 14.3 47.32 14.24 47.32C14.2 47.33 14.16 47.34 14.12 47.34C14.02 47.36 13.92 47.38 13.82 47.4C13.76 47.41 13.7 47.43 13.64 47.44C13.6 47.45 13.56 47.46 13.52 47.47C13.46 47.49 13.41 47.5 13.35 47.52C13.31 47.53 13.27 47.54 13.24 47.55C13.17 47.57 13.11 47.6 13.05 47.62C13.02 47.63 12.99 47.64 12.96 47.65C12.87 47.68 12.78 47.72 12.69 47.76C12.67 47.76 12.65 47.77 12.63 47.78C12.56 47.81 12.49 47.84 12.42 47.88C12.39 47.89 12.35 47.91 12.32 47.93C12.27 47.95 12.21 47.98 12.16 48.01C12.12 48.03 12.09 48.05 12.05 48.07C12 48.1 11.95 48.12 11.9 48.15C11.82 48.2 11.74 48.26 11.66 48.31C11.62 48.33 11.59 48.36 11.55 48.38C11.51 48.41 11.46 48.44 11.42 48.48C11.38 48.5 11.35 48.53 11.32 48.55C11.27 48.59 11.22 48.62 11.18 48.66C11.15 48.68 11.12 48.71 11.09 48.73C11.04 48.77 10.99 48.82 10.94 48.86C10.92 48.88 10.89 48.9 10.87 48.92C10.8 48.98 10.73 49.05 10.66 49.12C10.64 49.14 10.62 49.16 10.6 49.18C10.55 49.23 10.51 49.28 10.46 49.33C10.44 49.36 10.41 49.38 10.39 49.41C10.35 49.46 10.31 49.5 10.27 49.54C10.25 49.58 10.22 49.61 10.19 49.64C10.16 49.68 10.13 49.73 10.09 49.77C10.03 49.85 9.98 49.93 9.92 50.01C9.9 50.04 9.87 50.08 9.85 50.11C9.82 50.16 9.79 50.21 9.76 50.25C9.74 50.29 9.71 50.32 9.69 50.36C9.66 50.41 9.63 50.46 9.6 50.51C9.59 50.55 9.57 50.58 9.55 50.61C9.51 50.68 9.48 50.74 9.45 50.8C9.44 50.83 9.43 50.85 9.41 50.87C9.37 50.96 9.33 51.05 9.3 51.14C9.28 51.17 9.27 51.2 9.26 51.23C9.23 51.29 9.21 51.35 9.19 51.41C9.17 51.45 9.16 51.49 9.15 51.52C9.13 51.58 9.11 51.63 9.09 51.69C9.08 51.73 9.07 51.77 9.05 51.81C9.04 51.87 9.02 51.92 9.01 51.98C8.98 52.07 8.96 52.17 8.94 52.27C8.93 52.31 8.92 52.35 8.91 52.4C8.91 52.41 8.9 52.43 8.9 52.45L3.67 52.45C2.92 52.45 2.32 51.84 2.32 51.09L2.32 45C2.31 44.24 2.57 43.51 3.03 42.91C3.5 42.32 4.15 41.9 4.89 41.72C5.55 41.56 6.13 41.37 6.6 41.17L49.16 41.17C49.8 41.17 50.33 40.64 50.33 39.99C50.33 39.35 49.8 38.82 49.16 38.82L23.97 38.82L23.97 17.63C23.97 16.21 25.13 15.05 26.55 15.05L55 15.05C57.25 15.05 57.58 18.2 57.58 20.08L57.58 50.55C57.58 52.21 56.39 52.45 55.68 52.45ZM47.91 21.66C49.35 21.98 50.43 23.27 50.43 24.81C50.43 26.11 49.66 27.24 48.55 27.75C49.33 28.72 49.79 29.94 49.79 31.24C49.79 34.3 47.3 36.79 44.24 36.79C43.23 36.79 42.25 36.52 41.39 36C40.53 36.51 39.55 36.79 38.54 36.79C35.48 36.79 32.99 34.3 32.99 31.24C32.99 29.94 33.45 28.72 34.23 27.75C33.12 27.24 32.34 26.11 32.34 24.81C32.34 23.27 33.42 21.98 34.87 21.66C34.86 21.57 34.85 21.49 34.85 21.4C34.83 20.44 35.19 19.54 35.87 18.84C36.55 18.15 37.5 17.75 38.48 17.75C39.67 17.75 40.73 18.33 41.39 19.22C42.05 18.33 43.11 17.75 44.3 17.75C45.28 17.75 46.24 18.15 46.92 18.86C47.6 19.55 47.95 20.46 47.93 21.41C47.92 21.49 47.92 21.58 47.91 21.66ZM37.97 20.2C37.81 20.26 37.67 20.36 37.54 20.49C37.31 20.72 37.19 21.03 37.19 21.36C37.21 22.07 37.79 22.65 38.5 22.66C38.66 22.67 38.83 22.63 38.98 22.57C39.02 22.55 39.05 22.53 39.09 22.52C39.2 22.46 39.29 22.39 39.38 22.31C39.5 22.19 39.6 22.04 39.66 21.88C39.73 21.72 39.76 21.55 39.76 21.38C39.76 20.67 39.19 20.09 38.48 20.09C38.3 20.09 38.13 20.13 37.97 20.2ZM45.24 20.49C45 20.24 44.65 20.09 44.3 20.09C43.59 20.09 43.02 20.67 43.01 21.38C43.01 21.73 43.15 22.06 43.39 22.3C43.48 22.39 43.58 22.46 43.68 22.52C43.7 22.53 43.72 22.54 43.74 22.55C43.91 22.62 44.1 22.66 44.28 22.66C44.98 22.66 45.56 22.06 45.58 21.35C45.59 21.03 45.47 20.73 45.24 20.49ZM35.58 23.92C35.09 23.92 34.69 24.32 34.69 24.81C34.69 25.3 35.09 25.7 35.58 25.7C35.9 25.7 36.18 25.53 36.33 25.28C36.36 25.22 36.39 25.16 36.42 25.1C36.45 25.01 36.47 24.91 36.47 24.81C36.47 24.32 36.07 23.92 35.58 23.92ZM46.44 25.28C46.6 25.53 46.88 25.7 47.2 25.7C47.69 25.7 48.09 25.3 48.09 24.81C48.09 24.32 47.69 23.92 47.2 23.92C46.71 23.92 46.31 24.32 46.31 24.81C46.31 24.91 46.33 25 46.36 25.1C46.39 25.16 46.42 25.22 46.44 25.28ZM42.15 33.67C42.73 34.17 43.47 34.44 44.24 34.44C46 34.44 47.44 33.01 47.44 31.24C47.44 29.9 46.6 28.69 45.34 28.23C45.13 28.15 44.95 28.02 44.82 27.84C44.68 27.67 44.6 27.46 44.58 27.24C44.55 26.92 44.46 26.61 44.34 26.31C44.29 26.23 44.26 26.15 44.22 26.07C43.91 25.48 43.42 25 42.83 24.71C42.78 24.68 42.73 24.66 42.68 24.64C42.28 24.46 41.85 24.37 41.39 24.37C40.94 24.37 40.5 24.46 40.1 24.64C40.05 24.66 40 24.69 39.94 24.71C39.35 25.01 38.87 25.48 38.56 26.07C38.52 26.15 38.48 26.23 38.44 26.31C38.31 26.61 38.23 26.92 38.2 27.24C38.18 27.46 38.09 27.67 37.96 27.84C37.82 28.02 37.64 28.15 37.44 28.23C36.18 28.69 35.33 29.9 35.33 31.24C35.33 33.01 36.77 34.44 38.54 34.44C39.3 34.44 40.04 34.17 40.63 33.67C40.84 33.49 41.11 33.39 41.39 33.39C41.67 33.39 41.94 33.49 42.15 33.67ZM12.44 26.73C12.59 26.38 12.84 26.08 13.16 25.86C13.48 25.65 13.86 25.54 14.24 25.54L21.63 25.54L21.63 38.82L8.45 38.82L12.44 26.73ZM55.01 39.77C55 39.7 54.98 39.62 54.95 39.55C54.92 39.48 54.88 39.41 54.84 39.35C54.8 39.28 54.75 39.23 54.69 39.17C54.64 39.12 54.58 39.07 54.52 39.03C54.39 38.94 54.25 38.88 54.09 38.85C53.94 38.82 53.79 38.82 53.64 38.85C53.56 38.87 53.49 38.89 53.42 38.92C53.35 38.95 53.28 38.98 53.22 39.03C53.15 39.07 53.09 39.12 53.04 39.17C52.98 39.22 52.93 39.28 52.89 39.35C52.85 39.41 52.81 39.48 52.78 39.55C52.76 39.62 52.73 39.7 52.72 39.77C52.7 39.85 52.69 39.92 52.69 40C52.69 40.08 52.7 40.15 52.72 40.23C52.73 40.3 52.76 40.38 52.78 40.45C52.81 40.52 52.85 40.59 52.89 40.65C52.93 40.71 52.98 40.77 53.04 40.83C53.09 40.88 53.15 40.93 53.22 40.97C53.28 41.02 53.35 41.05 53.42 41.08C53.49 41.11 53.56 41.13 53.64 41.15C53.71 41.16 53.79 41.17 53.87 41.17C53.94 41.17 54.02 41.16 54.09 41.15C54.17 41.13 54.24 41.11 54.31 41.08C54.39 41.05 54.45 41.02 54.52 40.97C54.58 40.93 54.64 40.88 54.69 40.83C54.75 40.77 54.8 40.71 54.84 40.65C54.88 40.59 54.92 40.52 54.95 40.45C54.98 40.38 55 40.3 55.01 40.23C55.03 40.15 55.04 40.08 55.04 40C55.04 39.92 55.03 39.85 55.01 39.77ZM15.16 57.65C12.94 57.65 11.13 55.85 11.13 53.63C11.13 53.6 11.13 53.57 11.13 53.54C11.14 53.5 11.14 53.46 11.14 53.42C11.14 53.41 11.14 53.41 11.14 53.4C11.26 51.28 13.02 49.6 15.16 49.6C17.1 49.6 18.72 50.98 19.1 52.81L19.1 52.82C19.11 52.88 19.13 52.94 19.14 53L19.14 53.01C19.14 53.06 19.15 53.11 19.15 53.15C19.16 53.17 19.16 53.19 19.16 53.21C19.17 53.25 19.17 53.29 19.17 53.32C19.17 53.36 19.18 53.39 19.18 53.42C19.18 53.45 19.18 53.48 19.18 53.52C19.18 53.55 19.18 53.59 19.18 53.63C19.18 55.85 17.38 57.65 15.16 57.65ZM46.1 57.65C43.88 57.65 42.08 55.85 42.08 53.63C42.08 53.57 42.08 53.52 42.08 53.47C42.08 53.45 42.08 53.44 42.08 53.42C42.08 53.38 42.09 53.34 42.09 53.3C42.09 53.27 42.09 53.24 42.1 53.21C42.1 53.2 42.1 53.19 42.1 53.18C42.12 53.06 42.13 52.93 42.16 52.82C42.16 52.81 42.16 52.81 42.16 52.8C42.54 50.98 44.16 49.6 46.1 49.6C46.66 49.6 47.19 49.71 47.67 49.92C49.11 50.53 50.13 51.96 50.13 53.63C50.13 55.85 48.32 57.65 46.1 57.65Z" fill="#F1CDB3" fill-opacity="1.000000" fill-rule="evenodd"/>
</svg>
