<svg width="22.000000" height="32.000000" viewBox="0 0 22 32" fill="none" xmlns="http://www.w3.org/2000/svg" xmlns:xlink="http://www.w3.org/1999/xlink">
	<desc>
			Created with Pixso.
	</desc>
	<defs/>
	<rect id="icon-marker" width="22.000000" height="32.000000" transform="translate(-0.999969 0.000000)" fill="#FFFFFF" fill-opacity="0"/>
	<path id="pin" d="M-1 10.66C-1 4.78 3.93 0 10 0C16.06 0 21 4.78 21 10.66C21 12.43 20.54 14.18 19.68 15.73L10.6 31.65C10.48 31.86 10.25 32 10 32C9.74 32 9.51 31.86 9.39 31.65L0.32 15.73C-0.55 14.18 -1 12.43 -1 10.66ZM10 29.95L18.47 15.09C19.22 13.74 19.62 12.21 19.62 10.66C19.62 5.52 15.3 1.33 10 1.33C4.69 1.33 0.37 5.52 0.37 10.66C0.37 12.21 0.77 13.74 1.52 15.09L10 29.95ZM4.5 10.66C4.5 7.72 6.96 5.33 10 5.33C13.03 5.33 15.5 7.72 15.5 10.66C15.5 13.6 13.03 16 10 16C6.96 16 4.5 13.6 4.5 10.66ZM5.87 10.66C5.87 12.87 7.72 14.66 10 14.66C12.27 14.66 14.12 12.87 14.12 10.66C14.12 8.46 12.27 6.66 10 6.66C7.72 6.66 5.87 8.46 5.87 10.66Z" fill="#F1CDB3" fill-opacity="1.000000" fill-rule="evenodd"/>
</svg>
